<?xml version="1.0" encoding="iso-8859-1"?>
<!-- Generator: Adobe Illustrator 19.0.0, SVG Export Plug-In . SVG Version: 6.00 Build 0)  -->
<svg version="1.1" id="Layer_1" xmlns="http://www.w3.org/2000/svg" xmlns:xlink="http://www.w3.org/1999/xlink" x="0px" y="0px"
	viewBox="0 0 512 512" style="enable-background:new 0 0 512 512;" xml:space="preserve" fill="#333">
  <path d="M488.356,130.578h-35.629l17.925-17.64c9.315-9.313,9.315-24.274,0-33.587l-10.494-10.423
    c-9.313-9.313-24.415-9.563-33.73-0.25l-62.149,61.9H23.644C10.472,130.578,0,141.828,0,155v271.524
    c0,13.172,10.472,23.659,23.644,23.659h464.712c13.172,0,23.644-10.486,23.644-23.659V155
    C512,141.828,501.528,130.578,488.356,130.578z M101.764,402.479H47.702v-79.503h54.062V402.479z M101.764,275.274H47.702V178.28
    h54.062V275.274z M464.298,402.479H149.466V178.28h167.112l-75.24,75.526c-1.286,1.286-2.42,2.857-3.38,4.398l-17.324,27.888
    c-5.864,9.416-4.462,21.666,3.38,29.51c4.602,4.603,10.709,7.004,16.872,7.004c4.341,0,8.71-1.173,12.6-3.597l27.817-17.319
    c1.544-0.96,2.972-2.377,4.257-3.664L405.024,178.28h59.274V402.479z"/>
</svg>
