<?xml version="1.0" encoding="iso-8859-1"?>
<!-- Generator: Adobe Illustrator 19.1.0, SVG Export Plug-In . SVG Version: 6.00 Build 0)  -->
<svg version="1.1" id="Capa_1" xmlns="http://www.w3.org/2000/svg" xmlns:xlink="http://www.w3.org/1999/xlink" x="0px" y="0px"
	 viewBox="0 0 481 481" style="enable-background:new 0 0 481 481;" xml:space="preserve">
<g>
	<g>
		<path d="M250.5,148.15c-5.3-5.3-13.8-5.3-19.1,0l-83,83c-5.3,5.3-5.3,13.8,0,19.1s13.8,5.3,19.1,0l60-60v265
			c0,7.5,6,13.5,13.5,13.5s13.5-6,13.5-13.5v-265l60,60c2.6,2.6,6.1,4,9.5,4s6.9-1.3,9.5-4c5.3-5.3,5.3-13.8,0-19.1L250.5,148.15z"
			/>
		<path d="M458.5,219.35h-5.7c-8-40.4-27.5-77.1-56.9-106.6c-19.3-19.3-41.6-34.4-66-44.8h68.9c5.6,16.7,21.4,28.7,40,28.7
			c23.3,0,42.2-18.9,42.2-42.2s-18.9-42.2-42.2-42.2c-18.6,0-34.3,12-40,28.7h-117v-4.8c0-12.3-10-22.4-22.4-22.4h-36.7
			c-12.3,0-22.4,10-22.4,22.4v4.8h-117c-5.6-16.7-21.4-28.7-40-28.7c-23.3,0-42.2,18.9-42.2,42.2s18.9,42.2,42.2,42.2
			c18.6,0,34.3-12,40-28.7h68.9c-24.5,10.4-46.8,25.5-66,44.8c-29.4,29.5-49,66.2-56.9,106.6h-6.9c-12.3,0-22.4,10-22.4,22.4v36.7
			c0,12.3,10,22.4,22.4,22.4h36.7c12.3,0,22.4-10,22.4-22.4v-36.7c0-12.3-10-22.4-22.4-22.4H57c16-70.3,73.4-125.4,144.9-138.2
			c3.3,8.2,11.4,14,20.7,14h36.7c9.4,0,17.4-5.8,20.7-14c71.6,12.8,129,67.9,145.1,138.2h-3.3c-12.3,0-22.4,10-22.4,22.4v36.7
			c0,12.3,10,22.4,22.4,22.4h36.7c12.3,0,22.4-10,22.4-22.4v-36.7C480.9,229.45,470.9,219.35,458.5,219.35z M438.7,39.25
			c8.4,0,15.2,6.8,15.2,15.2s-6.8,15.2-15.2,15.2s-15.2-6.8-15.2-15.2S430.3,39.25,438.7,39.25z M43.3,69.65
			c-8.4,0-15.2-6.8-15.2-15.2s6.8-15.2,15.2-15.2s15.2,6.8,15.2,15.2S51.7,69.65,43.3,69.65z M54.3,273.85H26.9v-27.4h13.7l0,0l0,0
			h13.7V273.85z M254.7,68.15h-27.4v-27.5h27.4V68.15z M453.9,273.85h-27.4v-27.4h14.9l0,0l0,0h12.5V273.85z"/>
	</g>
</g>
<g>
</g>
<g>
</g>
<g>
</g>
<g>
</g>
<g>
</g>
<g>
</g>
<g>
</g>
<g>
</g>
<g>
</g>
<g>
</g>
<g>
</g>
<g>
</g>
<g>
</g>
<g>
</g>
<g>
</g>
</svg>
