<?xml version="1.0" encoding="utf-8"?>
<!-- Generator: Adobe Illustrator 24.3.0, SVG Export Plug-In . SVG Version: 6.00 Build 0)  -->
<svg version="1.1" id="图层_1" xmlns="http://www.w3.org/2000/svg" xmlns:xlink="http://www.w3.org/1999/xlink" x="0px" y="0px"
	 viewBox="0 0 48 48" style="enable-background:new 0 0 48 48;" xml:space="preserve">
<style type="text/css">
	.st0{fill:none;stroke:#333333;stroke-width:4;stroke-linecap:round;stroke-linejoin:round;}
</style>
<path class="st0" d="M9,6h30c1.7,0,3,1.3,3,3v30c0,1.7-1.3,3-3,3H9c-1.7,0-3-1.3-3-3V9C6,7.3,7.3,6,9,6z"/>
<line class="st0" x1="14.1" y1="16.3" x2="33.4" y2="15.1"/>
<path class="st0" d="M21.4,11.5c-1.3,6.2-2.1,13.9,0.2,19.9"/>
<path class="st0" d="M28.8,20.4c-0.1,4.6-3.9,13.8-8.9,14.8c-3.7,0.7-7.4-2.7-7.4-6.4c0-5.3,4.7-6.7,11.5-6.7
	c7.9,0,11.4,1.5,11.4,6.3c0,3.8-3.5,6.3-7.3,6.7"/>
</svg>
