<?xml version="1.0" encoding="utf-8"?>
<!-- Generator: Adobe Illustrator 24.3.0, SVG Export Plug-In . SVG Version: 6.00 Build 0)  -->
<svg version="1.1" xmlns="http://www.w3.org/2000/svg" xmlns:xlink="http://www.w3.org/1999/xlink" x="0px" y="0px"
	 viewBox="0 0 256 256" style="enable-background:new 0 0 256 256;" xml:space="preserve">
<style type="text/css">
	.st0{fill:#333333;}
</style>
<g>
	<path class="st0" d="M208.4,160.4c0,22.5-8,41.6-24,57.6s-35,24-57.4,24c-22.5,0-41.6-8-57.6-24s-24-35.1-24-57.6s8-41.6,24-57.5
		s35-23.9,57.4-23.9c22.5,0,41.7,8,57.7,23.9S208.4,138,208.4,160.4L208.4,160.4z M194.4,160.4c0-18.6-6.6-34.5-19.6-47.5
		c-13.2-13.2-28.9-19.6-47.5-19.6s-34.5,6.6-47.6,19.8s-19.7,29-19.7,47.3s6.6,34.2,19.7,47.4c13.2,13.3,29,19.9,47.6,19.9
		c18.5,0,34.3-6.6,47.4-19.8C187.8,194.8,194.4,178.9,194.4,160.4L194.4,160.4z"/>
	<path class="st0" d="M170.6,95.7c0,22.5-8,41.6-24,57.6s-35,24-57.4,24c-22.5,0-41.6-8-57.6-24s-24-35.1-24-57.6s8-41.6,24-57.5
		s35-23.9,57.4-23.9c22.5,0,41.7,8,57.7,23.9C162.6,54.2,170.6,73.3,170.6,95.7L170.6,95.7z M156.5,95.7c0-18.6-6.6-34.5-19.6-47.5
		s-29-19.7-47.6-19.7S54.8,35,41.7,48.3C28.4,61.6,21.8,77.4,21.8,95.7s6.6,34.2,19.7,47.4c13.2,13.3,29,19.9,47.6,19.9
		c18.5,0,34.3-6.6,47.4-19.8C150,130.1,156.5,114.2,156.5,95.7L156.5,95.7z"/>
	<path class="st0" d="M247.8,95.7c0,22.5-8,41.6-24,57.6s-35,24-57.4,24c-22.5,0-41.6-8-57.6-24s-24-35.1-24-57.6s8-41.6,24-57.5
		s35-23.9,57.4-23.9c22.5,0,41.7,8,57.7,23.9C239.9,54.2,247.8,73.3,247.8,95.7L247.8,95.7z M233.8,95.7c0-18.6-6.6-34.5-19.6-47.5
		c-13.2-13.2-29-19.7-47.6-19.7S132,35,118.9,48.3s-19.7,29-19.7,47.3s6.6,34.2,19.7,47.4c13.2,13.3,29,19.9,47.6,19.9
		c18.5,0,34.3-6.6,47.4-19.8C227.2,130.1,233.8,114.2,233.8,95.7L233.8,95.7z"/>
</g>
</svg>
